<svg xmlns="http://www.w3.org/2000/svg" width="112" height="128" viewBox="0 0 448 512">
            <rect xmlns="http://www.w3.org/1999/xhtml" class="highlight-box" x="-3" y="29" width="454" height="454" fill="none" stroke="red" stroke-width="2" pointer-events="none">
        </rect>
            
            
            
            
            
            <path fill="currentColor" d="M448 80v352c0 26.51-21.49 48-48 48H48c-26.51 0-48-21.49-48-48V80c0-26.51 21.49-48 48-48h352c26.51 0 48 21.49 48 48m-112 48h-32c-8.837 0-16 7.163-16 16v80H160v-80c0-8.837-7.163-16-16-16h-32c-8.837 0-16 7.163-16 16v224c0 8.837 7.163 16 16 16h32c8.837 0 16-7.163 16-16v-80h128v80c0 8.837 7.163 16 16 16h32c8.837 0 16-7.163 16-16V144c0-8.837-7.163-16-16-16" class="selected" style="fill: rgb(0, 0, 0); stroke-width: 10px; stroke: rgb(255, 255, 255);" stroke-width="10"/></svg>